HIERARCHY
ROOT Hips
{
	OFFSET 151.697800 93.143646 -72.043053
	CHANNELS 6 Xposition Yposition Zposition Zrotation Yrotation Xrotation 
	JOINT LeftUpLeg
	{
		OFFSET 0.103458 1.857831 10.548505
		CHANNELS 3 Zrotation Yrotation Xrotation
		JOINT LeftLeg
		{
			OFFSET 43.500000 -0.000031 0.000002
			CHANNELS 3 Zrotation Yrotation Xrotation
			JOINT LeftFoot
			{
				OFFSET 42.372200 0.000023 0.000003
				CHANNELS 3 Zrotation Yrotation Xrotation
				JOINT LeftToe
				{
					OFFSET 17.299997 -0.000001 -0.000010
					CHANNELS 3 Zrotation Yrotation Xrotation
					End Site
					{
						OFFSET 0.000000 0.000000 0.000000
					}
				}
			}
		}
	}
	JOINT RightUpLeg
	{
		OFFSET 0.103457 1.857828 -10.548510
		CHANNELS 3 Zrotation Yrotation Xrotation
		JOINT RightLeg
		{
			OFFSET 43.500046 -0.000015 0.000002
			CHANNELS 3 Zrotation Yrotation Xrotation
			JOINT RightFoot
			{
				OFFSET 42.372261 -0.000008 0.000023
				CHANNELS 3 Zrotation Yrotation Xrotation
				JOINT RightToe
				{
					OFFSET 17.299990 -0.000007 -0.000002
					CHANNELS 3 Zrotation Yrotation Xrotation
					End Site
					{
						OFFSET 0.000000 0.000000 0.000000
					}
				}
			}
		}
	}
	JOINT Spine
	{
		OFFSET 6.901967 -2.603726 -0.000001
		CHANNELS 3 Zrotation Yrotation Xrotation
		JOINT Spine1
		{
			OFFSET 12.588100 -0.000009 -0.000003
			CHANNELS 3 Zrotation Yrotation Xrotation
			JOINT Spine2
			{
				OFFSET 12.343202 0.000008 0.000008
				CHANNELS 3 Zrotation Yrotation Xrotation
				JOINT Neck
				{
					OFFSET 25.832897 -0.000015 -0.000004
					CHANNELS 3 Zrotation Yrotation Xrotation
					JOINT Head
					{
						OFFSET 11.766609 0.000013 -0.000006
						CHANNELS 3 Zrotation Yrotation Xrotation
						End Site
						{
							OFFSET 0.000000 0.000000 0.000000
						}
					}
				}
				JOINT LeftShoulder
				{
					OFFSET 19.745911 -1.480373 6.000098
					CHANNELS 3 Zrotation Yrotation Xrotation
					JOINT LeftArm
					{
						OFFSET 11.284123 -0.000007 -0.000032
						CHANNELS 3 Zrotation Yrotation Xrotation
						JOINT LeftForeArm
						{
							OFFSET 33.000050 0.000005 0.000031
							CHANNELS 3 Zrotation Yrotation Xrotation
							JOINT LeftHand
							{
								OFFSET 25.200008 0.000017 0.000013
								CHANNELS 3 Zrotation Yrotation Xrotation
								End Site
								{
									OFFSET 0.000000 0.000000 0.000000
								}
							}
						}
					}
				}
				JOINT RightShoulder
				{
					OFFSET 19.746092 -1.480379 -6.000077
					CHANNELS 3 Zrotation Yrotation Xrotation
					JOINT RightArm
					{
						OFFSET 11.284136 -0.000017 -0.000017
						CHANNELS 3 Zrotation Yrotation Xrotation
						JOINT RightForeArm
						{
							OFFSET 33.000099 0.000019 0.000015
							CHANNELS 3 Zrotation Yrotation Xrotation
							JOINT RightHand
							{
								OFFSET 25.199780 0.000140 0.000408
								CHANNELS 3 Zrotation Yrotation Xrotation
								End Site
								{
									OFFSET 0.000000 0.000000 0.000000
								}
							}
						}
					}
				}
			}
		}
	}
}
MOTION
Frames: 14
Frame Time: 0.033333
151.697800 93.143646 -72.043053 90.062697 4.043022 87.981012 -176.849457 -3.010301 -176.550609 -9.181385 -2.518289 -4.261499 72.763194 2.453744 -2.216523 21.454555 0.003092 -0.000000 -175.026644 3.189893 -179.422909 -9.250847 3.103838 9.976429 76.637578 -6.204524 3.737153 21.454555 -0.003097 -0.000017 6.570087 -0.213389 -0.037161 3.109913 -0.385161 -0.076118 2.791812 -0.385499 -0.073720 6.889234 -2.159677 -5.528147 -19.639765 4.982503 -7.973424 -87.592088 -88.100909 -94.327747 -0.992809 11.677400 -6.102043 -20.626763 -14.694529 1.048042 9.313819 -2.053701 19.130486 -119.044501 82.931925 63.127163 -4.756442 -6.735561 5.511307 -19.914141 15.873831 -1.150927 8.843414 3.027426 -5.645735 
151.697906 93.144432 -72.045036 90.062704 4.033515 87.972823 -176.856288 -3.010299 -176.542577 -9.175160 -2.518293 -4.271226 72.757422 2.459628 -2.219685 21.454553 0.003090 -0.000001 -175.036629 3.189888 -179.428318 -9.246603 3.106867 9.976439 76.633534 -6.204511 3.737148 21.454558 -0.003115 -0.000017 6.570081 -0.213383 -0.037161 3.109910 -0.388875 -0.076113 2.791801 -0.389198 -0.073724 6.877195 -2.172577 -5.519134 -19.629730 4.982501 -7.965690 -87.296737 -88.101114 -94.623597 -0.970061 11.677401 -6.090284 -20.601039 -14.665212 1.048039 9.327031 -2.078503 19.038406 -118.955422 82.918859 63.217758 -4.762274 -6.722548 5.552572 -19.899843 15.856219 -1.150941 8.857958 3.000565 -5.630634 
151.698502 93.146004 -72.047913 90.062704 4.014112 87.955788 -176.869101 -3.010292 -176.524190 -9.161607 -2.518286 -4.292426 72.745975 2.472577 -2.226172 21.454553 0.003097 0.000001 -175.056505 3.189893 -179.440749 -9.238214 3.113401 9.976431 76.625775 -6.204506 3.737153 21.454560 -0.003122 -0.000020 6.570081 -0.213388 -0.037161 3.109912 -0.396599 -0.076121 2.791803 -0.396919 -0.073714 6.844171 -2.196540 -5.500707 -19.601449 4.982500 -7.948493 -86.671672 -88.095356 -95.250185 -0.927542 11.672280 -6.101312 -20.583579 -14.614779 1.048042 9.402749 -2.095340 18.884402 -118.789666 82.894085 63.386471 -4.771815 -6.694151 5.632988 -19.868870 15.821273 -1.150933 8.883188 2.949437 -5.596578 
151.699402 93.147598 -72.050484 90.062697 3.994608 87.936281 -176.881163 -3.010293 -176.506759 -9.147496 -2.518282 -4.314587 72.734336 2.486198 -2.232781 21.454551 0.003093 0.000002 -175.077419 3.189890 -179.457196 -9.231154 3.120635 9.976430 76.618269 -6.204518 3.737150 21.454558 -0.003103 -0.000017 6.570089 -0.213384 -0.037161 3.109911 -0.404865 -0.072034 2.791805 -0.405143 -0.069600 6.819111 -2.217009 -5.485704 -19.574926 4.974161 -7.930688 -86.098414 -88.075323 -95.825758 -0.909577 11.659461 -6.104858 -20.558511 -14.559440 1.048040 9.439059 -2.069720 18.841089 -118.638036 82.874230 63.540471 -4.773721 -6.666960 5.711442 -19.835995 15.789579 -1.150928 8.904306 2.906973 -5.561131 
151.700302 93.149162 -72.053543 90.062697 3.975693 87.914302 -176.893252 -3.010298 -176.495531 -9.135002 -2.518282 -4.334545 72.723148 2.498380 -2.238940 21.454551 0.003093 -0.000001 -175.099918 3.189899 -179.477810 -9.226803 3.127923 9.976423 76.611302 -6.204519 3.737155 21.454562 -0.003115 -0.000018 6.570085 -0.213381 -0.037157 3.109906 -0.413113 -0.066700 2.791806 -0.413368 -0.064191 6.845775 -2.228513 -5.476342 -19.591052 4.946780 -7.912264 -85.650408 -88.063159 -96.275075 -0.896029 11.644750 -6.075963 -20.507510 -14.506290 1.048043 9.418868 -2.040169 18.968559 -118.538575 82.865426 63.641278 -4.760509 -6.643337 5.774777 -19.805424 15.766693 -1.150939 8.920227 2.884673 -5.531253 
151.700607 93.150658 -72.056808 90.062704 3.957310 87.893647 -176.906366 -3.010295 -176.490504 -9.125379 -2.518284 -4.350010 72.712889 2.507612 -2.244236 21.454551 0.003095 -0.000001 -175.122225 3.189899 -179.499789 -9.223204 3.134935 9.976434 76.604745 -6.204517 3.737152 21.454560 -0.003109 -0.000017 6.570078 -0.213383 -0.037154 3.109913 -0.420424 -0.061797 2.791806 -0.420648 -0.059255 6.913665 -2.231783 -5.454284 -19.659817 4.918534 -7.881905 -85.410443 -88.061643 -96.515299 -0.892003 11.635861 -5.994535 -20.404960 -14.462022 1.043974 9.299299 -2.102335 19.241198 -118.483073 82.868260 63.696889 -4.733184 -6.629327 5.816962 -19.779820 15.757738 -1.150938 8.929417 2.894109 -5.513020 
151.700302 93.152069 -72.060638 90.062690 3.940418 87.875411 -176.919795 -3.010295 -176.490025 -9.118395 -2.518275 -4.361249 72.703245 2.514112 -2.248657 21.454553 0.003098 -0.000000 -175.143344 3.189896 -179.521796 -9.221403 3.141598 9.976424 76.598577 -6.204522 3.737151 21.454560 -0.003107 -0.000018 6.570084 -0.213393 -0.037151 3.109910 -0.426030 -0.059538 2.791806 -0.426248 -0.056966 6.974490 -2.244780 -5.433665 -19.720655 4.901850 -7.858274 -85.458412 -88.052074 -96.468280 -0.930084 11.623911 -5.803970 -20.198842 -14.402038 1.037696 9.020798 -2.363729 19.622814 -118.399827 82.873240 63.780375 -4.710524 -6.627667 5.853611 -19.758621 15.752274 -1.150934 8.926117 2.941343 -5.507886 
151.699295 93.153351 -72.065529 90.062710 3.925814 87.860371 -176.933578 -3.010295 -176.494001 -9.114685 -2.518281 -4.367935 72.694270 2.517605 -2.252241 21.454551 0.003090 -0.000002 -175.162633 3.190226 -179.542451 -9.220042 3.147689 9.976430 76.592758 -6.204512 3.735311 21.454558 -0.003116 -0.000019 6.570083 -0.213745 -0.037158 3.105756 -0.429680 -0.058166 2.787642 -0.429891 -0.055587 7.010642 -2.275713 -5.423528 -19.744793 4.900119 -7.851624 -85.767819 -88.041056 -96.159966 -0.969149 11.618741 -5.610051 -19.968671 -14.331219 1.030451 8.647492 -2.709290 20.028111 -118.241202 82.879797 63.939771 -4.697422 -6.643954 5.898168 -19.745139 15.748978 -1.150939 8.920180 2.997614 -5.483193 
151.697601 93.154480 -72.072098 90.062697 3.913510 87.848459 -176.948495 -3.010301 -176.503126 -9.115072 -2.518289 -4.369585 72.686081 2.517743 -2.253935 21.454550 0.003104 0.000000 -175.180678 3.190658 -179.561725 -9.219208 3.153261 9.980619 76.587157 -6.204524 3.733553 21.454560 -0.003113 -0.000016 6.570084 -0.214251 -0.037163 3.103443 -0.431559 -0.056838 2.785348 -0.431769 -0.054230 7.038044 -2.313906 -5.420683 -19.757545 4.907625 -7.856451 -86.201946 -88.032184 -95.725654 -0.973458 11.634301 -5.533173 -19.822544 -14.259841 1.024217 8.349525 -2.965388 20.300922 -117.999291 82.884537 64.182830 -4.693127 -6.681502 5.955833 -19.743691 15.746719 -1.150937 8.918840 3.056702 -5.431213 
151.695297 93.155457 -72.080803 90.062704 3.903900 87.840174 -176.964245 -3.010297 -176.518098 -9.119007 -2.513787 -4.365507 72.678144 2.514133 -2.255201 21.454555 0.003095 0.000001 -175.197658 3.191137 -179.578815 -9.218991 3.158192 9.985503 76.582041 -6.204519 3.731831 21.454557 -0.003110 -0.000018 6.570079 -0.214872 -0.037157 3.101842 -0.433261 -0.055573 2.783738 -0.433471 -0.052961 7.057140 -2.343535 -5.427782 -19.761901 4.922454 -7.873111 -86.570503 -88.026324 -95.357664 -0.963449 11.664231 -5.514676 -19.732517 -14.183420 1.018317 8.171730 -3.154507 20.254074 -117.772556 82.880125 64.411621 -4.698809 -6.727122 6.026026 -19.751978 15.744897 -1.150942 8.933640 3.123049 -5.378029 
151.692596 93.156357 -72.091408 90.062697 3.897011 87.835761 -176.979436 -3.010301 -176.543519 -9.124203 -2.506535 -4.353080 72.669490 2.504936 -2.256072 21.454551 0.003097 0.000001 -175.213026 3.191549 -179.593226 -9.219446 3.162742 9.991077 76.577424 -6.208884 3.730114 21.454558 -0.003111 -0.000018 6.570080 -0.215548 -0.037162 3.101268 -0.434758 -0.054419 2.783154 -0.434948 -0.051799 7.065245 -2.366710 -5.445144 -19.763011 4.944926 -7.902692 -86.887752 -88.021372 -95.040498 -0.946615 11.705360 -5.536451 -19.685850 -14.125921 1.015869 8.066111 -3.262924 20.115267 -117.571229 82.868042 64.615024 -4.713341 -6.775763 6.102257 -19.766161 15.743099 -1.150939 8.963021 3.155082 -5.367902 
151.689301 93.157181 -72.103813 90.062704 3.893617 87.834409 -176.991744 -3.010294 -176.587834 -9.128327 -2.494519 -4.328205 72.659122 2.487355 -2.256588 21.454551 0.003083 -0.000001 -175.226072 3.191803 -179.605766 -9.220650 3.167270 9.997025 76.573217 -6.213535 3.728397 21.454560 -0.003106 -0.000016 6.570082 -0.216255 -0.037148 3.102017 -0.436001 -0.053424 2.783906 -0.436196 -0.050776 7.059485 -2.378702 -5.461620 -19.751743 4.961785 -7.927289 -87.095082 -88.016037 -94.833345 -0.924301 11.759130 -5.598817 -19.676098 -14.114380 1.014171 7.986645 -3.241348 20.009169 -117.454228 82.846643 64.734361 -4.735979 -6.814097 6.176176 -19.780784 15.741201 -1.150948 8.997634 3.082684 -5.471406 
151.685806 93.157768 -72.117920 90.062697 3.894733 87.834279 -177.001634 -3.010294 -176.627463 -9.133880 -2.484336 -4.305230 72.649287 2.471224 -2.256815 21.454555 0.003101 0.000000 -175.236167 3.191786 -179.617911 -9.224287 3.169346 10.003405 76.569788 -6.218482 3.726660 21.454558 -0.003115 -0.000017 6.570082 -0.216911 -0.037158 3.106023 -0.436965 -0.052597 2.787907 -0.437157 -0.049954 7.044222 -2.376531 -5.476768 -19.727584 4.969243 -7.944538 -87.101994 -88.018804 -94.826351 -0.893145 11.836561 -5.728129 -19.705651 -14.149672 1.013136 7.922919 -3.166152 19.993664 -117.413493 82.814657 64.777582 -4.767146 -6.846705 6.208594 -19.784324 15.767533 -1.150931 9.023125 3.005319 -5.486447 
151.681900 93.158096 -72.133827 90.062697 3.900528 87.835297 -177.009147 -3.010296 -176.662460 -9.140972 -2.475705 -4.283813 72.639998 2.456283 -2.256773 21.454551 0.003088 0.000001 -175.243215 3.191404 -179.626722 -9.229665 3.170804 10.008897 76.566906 -6.222827 3.724878 21.454557 -0.003109 -0.000017 6.570085 -0.217498 -0.037158 3.112175 -0.437624 -0.052014 2.794069 -0.437795 -0.049365 7.026343 -2.363108 -5.493697 -19.699060 4.968611 -7.958942 -86.907143 -88.035763 -95.019898 -0.854344 11.907270 -5.850700 -19.744948 -14.177422 1.012676 7.867237 -3.132185 20.023154 -117.358646 82.778245 64.835434 -4.796482 -6.875353 6.234488 -19.786419 15.789611 -1.150928 9.036312 2.946198 -5.445817 
